---
layout: anime

title: Kimi to Boku.
image: https://i.imgur.com/BmenzFF.png
mal: 10460
anidb: 8367
r720: false
r1080: true

desc: >-
  This is another series with a relaxing/comedic atmosphere. I highly recommend it if you like these types of shows (such as tanaka-kun, flying witch, usagi drop, barakamon).
  <br><br>
  This release features my v2 fixes, which includes sign fixing, slight scene bleed fixing, op/ed modifications and font changes. Video/audio is from Beatrice-Raws, and the subs taken from SallySubs.

status: Complete
groups: Beatrice-Raws, SallySubs
vidinfo: .mkv, h264 10-bit

size1080: ~600 MB / Episode @ 1080p (1920x1080) [Beatrice-Raws]
audio1080a: Japanese 2.0ch FLAC (Main Dialogue) [Beatrice-Raws]
subtitle1: English Dialogue (.ass) [SallySubs]

nyaa1080: https://nyaa.si/view/1044189
anidex1080: https://anidex.info/torrent/152018
at1080: https://animetosho.org/view/cyc-kimi-boku-bd-1080p-hi10-x264-flac.d152018
ant1080: https://animetorrents.me/torrent-details.php?torid=36451
ab1080: https://animebytes.tv/torrents.php?id=9090&torrentid=370042

github: https://github.com/cyc-anime/Kimi-to-Boku
---
General
Unique ID                                : 192912363804708522601250916272853167079 (0x912191DF076751F9A95F2B83DFCB2BE7)
Complete name                            : [CyC] Kimi to Boku 01 (BD 1080p Hi10 x264 FLAC).mkv
Format                                   : Matroska
Format version                           : Version 4 / Version 2
File size                                : 529 MiB
Duration                                 : 24 min 22 s
Overall bit rate mode                    : Variable
Overall bit rate                         : 3 033 kb/s
Movie name                               : On Our 17th Spring
Encoded date                             : UTC 2018-06-03 23:17:28
Writing application                      : mkvmerge v9.7.1 ('Pandemonium') 64bit
Writing library                          : libebml v1.3.4 + libmatroska v1.4.5
Attachments                              : Bitstream Arrus Bold Italic BT.ttf / Cicle Semi.ttf / CronosPro-Semibold.ttf / Sweet Home Oklahoma.ttf

Video
ID                                       : 1
Format                                   : AVC
Format/Info                              : Advanced Video Codec
Format profile                           : High 10@L5
Format settings                          : CABAC / 4 Ref Frames
Format settings, CABAC                   : Yes
Format settings, RefFrames               : 4 frames
Codec ID                                 : V_MPEG4/ISO/AVC
Duration                                 : 24 min 22 s
Bit rate                                 : 2 390 kb/s
Width                                    : 1 920 pixels
Height                                   : 1 080 pixels
Display aspect ratio                     : 16:9
Frame rate mode                          : Constant
Frame rate                               : 23.976 (24000/1001) FPS
Color space                              : YUV
Chroma subsampling                       : 4:2:0
Bit depth                                : 10 bits
Scan type                                : Progressive
Bits/(Pixel*Frame)                       : 0.048
Stream size                              : 416 MiB (79%)
Writing library                          : x264 core 148 r2597M e86f3a1 (DJATOM's build)
Encoding settings                        : cabac=1 / ref=4 / deblock=1:1:-1 / analyse=0x3:0x113 / me=umh / subme=9 / psy=1 / fade_compensate=0.00 / psy_rd=1.00:0.00 / mixed_ref=1 / me_range=32 / chroma_me=1 / trellis=2 / 8x8dct=1 / cqm=0 / deadzone=21,11 / fast_pskip=1 / chroma_qp_offset=-2 / threads=6 / lookahead_threads=1 / sliced_threads=0 / nr=0 / decimate=1 / interlaced=0 / bluray_compat=0 / constrained_intra=0 / bframes=9 / b_pyramid=2 / b_adapt=2 / b_bias=0 / direct=1 / weightb=1 / open_gop=0 / weightp=2 / keyint=250 / keyint_min=23 / scenecut=40 / intra_refresh=0 / rc=crf / mbtree=0 / crf=16.5000 / qcomp=0.72 / qpmin=0 / qpmax=81 / qpstep=4 / ip_ratio=1.40 / pb_ratio=1.30 / aq=1:0.85
Language                                 : Japanese
Default                                  : Yes
Forced                                   : No
Color range                              : Limited
Color primaries                          : BT.709
Transfer characteristics                 : BT.709
Matrix coefficients                      : BT.709

Audio
ID                                       : 2
Format                                   : FLAC
Format/Info                              : Free Lossless Audio Codec
Codec ID                                 : A_FLAC
Duration                                 : 24 min 22 s
Bit rate mode                            : Variable
Bit rate                                 : 640 kb/s
Channel(s)                               : 2 channels
Channel positions                        : Front: L R
Sampling rate                            : 48.0 kHz
Frame rate                               : 11.719 FPS (4096 SPF)
Bit depth                                : 16 bits
Stream size                              : 112 MiB (21%)
Writing library                          : libFLAC 1.3.1 (UTC 2014-11-25)
Language                                 : Japanese
Default                                  : Yes
Forced                                   : No

Text
ID                                       : 3
Format                                   : ASS
Codec ID                                 : S_TEXT/ASS
Codec ID/Info                            : Advanced Sub Station Alpha
Duration                                 : 24 min 7 s
Bit rate                                 : 142 b/s
Count of elements                        : 407
Compression mode                         : Lossless
Stream size                              : 25.1 KiB (0%)
Title                                    : SallySubs
Language                                 : English
Default                                  : Yes
Forced                                   : No

Menu
00:00:00.000                             : en:Prologue
00:01:21.998                             : en:Opening
00:02:47.041                             : en:Part A
00:09:58.014                             : en:Break
00:10:08.024                             : en:Part B
00:22:45.989                             : en:Ending
00:24:11.032                             : en:Preview